<?xml version="1.0" encoding="UTF-8" standalone="no"?>
<!DOCTYPE svg PUBLIC "-//W3C//DTD SVG 1.1//EN"
 "http://www.w3.org/Graphics/SVG/1.1/DTD/svg11.dtd">
<!-- Generated by graphviz version 2.40.1 (20161225.0304)
 -->
<!-- Title: G Pages: 1 -->
<svg width="388pt" height="719pt"
 viewBox="0.00 0.00 388.00 719.00" xmlns="http://www.w3.org/2000/svg" xmlns:xlink="http://www.w3.org/1999/xlink">
<g id="graph0" class="graph" transform="scale(1 1) rotate(0) translate(4 715)">
<title>G</title>
<polygon fill="#ffffff" stroke="transparent" points="-4,4 -4,-715 384,-715 384,4 -4,4"/>
<!-- 140366784808048 -->
<g id="node1" class="node">
<title>140366784808048</title>
<polygon fill="none" stroke="#000000" points="40,-664.5 40,-710.5 340,-710.5 340,-664.5 40,-664.5"/>
<text text-anchor="middle" x="102.5" y="-683.8" font-family="Times,serif" font-size="14.00" fill="#000000">input_1: InputLayer</text>
<polyline fill="none" stroke="#000000" points="165,-664.5 165,-710.5 "/>
<text text-anchor="middle" x="192.5" y="-695.3" font-family="Times,serif" font-size="14.00" fill="#000000">input:</text>
<polyline fill="none" stroke="#000000" points="165,-687.5 220,-687.5 "/>
<text text-anchor="middle" x="192.5" y="-672.3" font-family="Times,serif" font-size="14.00" fill="#000000">output:</text>
<polyline fill="none" stroke="#000000" points="220,-664.5 220,-710.5 "/>
<text text-anchor="middle" x="280" y="-695.3" font-family="Times,serif" font-size="14.00" fill="#000000">[(None, 28, 28, 1)]</text>
<polyline fill="none" stroke="#000000" points="220,-687.5 340,-687.5 "/>
<text text-anchor="middle" x="280" y="-672.3" font-family="Times,serif" font-size="14.00" fill="#000000">[(None, 28, 28, 1)]</text>
</g>
<!-- 140365948505728 -->
<g id="node2" class="node">
<title>140365948505728</title>
<polygon fill="none" stroke="#000000" points="48.5,-581.5 48.5,-627.5 331.5,-627.5 331.5,-581.5 48.5,-581.5"/>
<text text-anchor="middle" x="103.5" y="-600.8" font-family="Times,serif" font-size="14.00" fill="#000000">conv2d: Conv2D</text>
<polyline fill="none" stroke="#000000" points="158.5,-581.5 158.5,-627.5 "/>
<text text-anchor="middle" x="186" y="-612.3" font-family="Times,serif" font-size="14.00" fill="#000000">input:</text>
<polyline fill="none" stroke="#000000" points="158.5,-604.5 213.5,-604.5 "/>
<text text-anchor="middle" x="186" y="-589.3" font-family="Times,serif" font-size="14.00" fill="#000000">output:</text>
<polyline fill="none" stroke="#000000" points="213.5,-581.5 213.5,-627.5 "/>
<text text-anchor="middle" x="272.5" y="-612.3" font-family="Times,serif" font-size="14.00" fill="#000000">(None, 28, 28, 1)</text>
<polyline fill="none" stroke="#000000" points="213.5,-604.5 331.5,-604.5 "/>
<text text-anchor="middle" x="272.5" y="-589.3" font-family="Times,serif" font-size="14.00" fill="#000000">(None, 26, 26, 32)</text>
</g>
<!-- 140366784808048&#45;&gt;140365948505728 -->
<g id="edge1" class="edge">
<title>140366784808048&#45;&gt;140365948505728</title>
<path fill="none" stroke="#000000" d="M190,-664.3799C190,-656.1745 190,-646.7679 190,-637.8786"/>
<polygon fill="#000000" stroke="#000000" points="193.5001,-637.784 190,-627.784 186.5001,-637.784 193.5001,-637.784"/>
</g>
<!-- 140366817033016 -->
<g id="node3" class="node">
<title>140366817033016</title>
<polygon fill="none" stroke="#000000" points="6.5,-498.5 6.5,-544.5 373.5,-544.5 373.5,-498.5 6.5,-498.5"/>
<text text-anchor="middle" x="103.5" y="-517.8" font-family="Times,serif" font-size="14.00" fill="#000000">max_pooling2d: MaxPooling2D</text>
<polyline fill="none" stroke="#000000" points="200.5,-498.5 200.5,-544.5 "/>
<text text-anchor="middle" x="228" y="-529.3" font-family="Times,serif" font-size="14.00" fill="#000000">input:</text>
<polyline fill="none" stroke="#000000" points="200.5,-521.5 255.5,-521.5 "/>
<text text-anchor="middle" x="228" y="-506.3" font-family="Times,serif" font-size="14.00" fill="#000000">output:</text>
<polyline fill="none" stroke="#000000" points="255.5,-498.5 255.5,-544.5 "/>
<text text-anchor="middle" x="314.5" y="-529.3" font-family="Times,serif" font-size="14.00" fill="#000000">(None, 26, 26, 32)</text>
<polyline fill="none" stroke="#000000" points="255.5,-521.5 373.5,-521.5 "/>
<text text-anchor="middle" x="314.5" y="-506.3" font-family="Times,serif" font-size="14.00" fill="#000000">(None, 13, 13, 32)</text>
</g>
<!-- 140365948505728&#45;&gt;140366817033016 -->
<g id="edge2" class="edge">
<title>140365948505728&#45;&gt;140366817033016</title>
<path fill="none" stroke="#000000" d="M190,-581.3799C190,-573.1745 190,-563.7679 190,-554.8786"/>
<polygon fill="#000000" stroke="#000000" points="193.5001,-554.784 190,-544.784 186.5001,-554.784 193.5001,-554.784"/>
</g>
<!-- 140365844170232 -->
<g id="node4" class="node">
<title>140365844170232</title>
<polygon fill="none" stroke="#000000" points="42,-415.5 42,-461.5 338,-461.5 338,-415.5 42,-415.5"/>
<text text-anchor="middle" x="103.5" y="-434.8" font-family="Times,serif" font-size="14.00" fill="#000000">conv2d_1: Conv2D</text>
<polyline fill="none" stroke="#000000" points="165,-415.5 165,-461.5 "/>
<text text-anchor="middle" x="192.5" y="-446.3" font-family="Times,serif" font-size="14.00" fill="#000000">input:</text>
<polyline fill="none" stroke="#000000" points="165,-438.5 220,-438.5 "/>
<text text-anchor="middle" x="192.5" y="-423.3" font-family="Times,serif" font-size="14.00" fill="#000000">output:</text>
<polyline fill="none" stroke="#000000" points="220,-415.5 220,-461.5 "/>
<text text-anchor="middle" x="279" y="-446.3" font-family="Times,serif" font-size="14.00" fill="#000000">(None, 13, 13, 32)</text>
<polyline fill="none" stroke="#000000" points="220,-438.5 338,-438.5 "/>
<text text-anchor="middle" x="279" y="-423.3" font-family="Times,serif" font-size="14.00" fill="#000000">(None, 11, 11, 64)</text>
</g>
<!-- 140366817033016&#45;&gt;140365844170232 -->
<g id="edge3" class="edge">
<title>140366817033016&#45;&gt;140365844170232</title>
<path fill="none" stroke="#000000" d="M190,-498.3799C190,-490.1745 190,-480.7679 190,-471.8786"/>
<polygon fill="#000000" stroke="#000000" points="193.5001,-471.784 190,-461.784 186.5001,-471.784 193.5001,-471.784"/>
</g>
<!-- 140365844170680 -->
<g id="node5" class="node">
<title>140365844170680</title>
<polygon fill="none" stroke="#000000" points="0,-332.5 0,-378.5 380,-378.5 380,-332.5 0,-332.5"/>
<text text-anchor="middle" x="103.5" y="-351.8" font-family="Times,serif" font-size="14.00" fill="#000000">max_pooling2d_1: MaxPooling2D</text>
<polyline fill="none" stroke="#000000" points="207,-332.5 207,-378.5 "/>
<text text-anchor="middle" x="234.5" y="-363.3" font-family="Times,serif" font-size="14.00" fill="#000000">input:</text>
<polyline fill="none" stroke="#000000" points="207,-355.5 262,-355.5 "/>
<text text-anchor="middle" x="234.5" y="-340.3" font-family="Times,serif" font-size="14.00" fill="#000000">output:</text>
<polyline fill="none" stroke="#000000" points="262,-332.5 262,-378.5 "/>
<text text-anchor="middle" x="321" y="-363.3" font-family="Times,serif" font-size="14.00" fill="#000000">(None, 11, 11, 64)</text>
<polyline fill="none" stroke="#000000" points="262,-355.5 380,-355.5 "/>
<text text-anchor="middle" x="321" y="-340.3" font-family="Times,serif" font-size="14.00" fill="#000000">(None, 5, 5, 64)</text>
</g>
<!-- 140365844170232&#45;&gt;140365844170680 -->
<g id="edge4" class="edge">
<title>140365844170232&#45;&gt;140365844170680</title>
<path fill="none" stroke="#000000" d="M190,-415.3799C190,-407.1745 190,-397.7679 190,-388.8786"/>
<polygon fill="#000000" stroke="#000000" points="193.5001,-388.784 190,-378.784 186.5001,-388.784 193.5001,-388.784"/>
</g>
<!-- 140365776831376 -->
<g id="node6" class="node">
<title>140365776831376</title>
<polygon fill="none" stroke="#000000" points="49,-249.5 49,-295.5 331,-295.5 331,-249.5 49,-249.5"/>
<text text-anchor="middle" x="110.5" y="-268.8" font-family="Times,serif" font-size="14.00" fill="#000000">conv2d_2: Conv2D</text>
<polyline fill="none" stroke="#000000" points="172,-249.5 172,-295.5 "/>
<text text-anchor="middle" x="199.5" y="-280.3" font-family="Times,serif" font-size="14.00" fill="#000000">input:</text>
<polyline fill="none" stroke="#000000" points="172,-272.5 227,-272.5 "/>
<text text-anchor="middle" x="199.5" y="-257.3" font-family="Times,serif" font-size="14.00" fill="#000000">output:</text>
<polyline fill="none" stroke="#000000" points="227,-249.5 227,-295.5 "/>
<text text-anchor="middle" x="279" y="-280.3" font-family="Times,serif" font-size="14.00" fill="#000000">(None, 5, 5, 64)</text>
<polyline fill="none" stroke="#000000" points="227,-272.5 331,-272.5 "/>
<text text-anchor="middle" x="279" y="-257.3" font-family="Times,serif" font-size="14.00" fill="#000000">(None, 3, 3, 64)</text>
</g>
<!-- 140365844170680&#45;&gt;140365776831376 -->
<g id="edge5" class="edge">
<title>140365844170680&#45;&gt;140365776831376</title>
<path fill="none" stroke="#000000" d="M190,-332.3799C190,-324.1745 190,-314.7679 190,-305.8786"/>
<polygon fill="#000000" stroke="#000000" points="193.5001,-305.784 190,-295.784 186.5001,-305.784 193.5001,-305.784"/>
</g>
<!-- 140365776830704 -->
<g id="node7" class="node">
<title>140365776830704</title>
<polygon fill="none" stroke="#000000" points="62.5,-166.5 62.5,-212.5 317.5,-212.5 317.5,-166.5 62.5,-166.5"/>
<text text-anchor="middle" x="110.5" y="-185.8" font-family="Times,serif" font-size="14.00" fill="#000000">flatten: Flatten</text>
<polyline fill="none" stroke="#000000" points="158.5,-166.5 158.5,-212.5 "/>
<text text-anchor="middle" x="186" y="-197.3" font-family="Times,serif" font-size="14.00" fill="#000000">input:</text>
<polyline fill="none" stroke="#000000" points="158.5,-189.5 213.5,-189.5 "/>
<text text-anchor="middle" x="186" y="-174.3" font-family="Times,serif" font-size="14.00" fill="#000000">output:</text>
<polyline fill="none" stroke="#000000" points="213.5,-166.5 213.5,-212.5 "/>
<text text-anchor="middle" x="265.5" y="-197.3" font-family="Times,serif" font-size="14.00" fill="#000000">(None, 3, 3, 64)</text>
<polyline fill="none" stroke="#000000" points="213.5,-189.5 317.5,-189.5 "/>
<text text-anchor="middle" x="265.5" y="-174.3" font-family="Times,serif" font-size="14.00" fill="#000000">(None, 576)</text>
</g>
<!-- 140365776831376&#45;&gt;140365776830704 -->
<g id="edge6" class="edge">
<title>140365776831376&#45;&gt;140365776830704</title>
<path fill="none" stroke="#000000" d="M190,-249.3799C190,-241.1745 190,-231.7679 190,-222.8786"/>
<polygon fill="#000000" stroke="#000000" points="193.5001,-222.784 190,-212.784 186.5001,-222.784 193.5001,-222.784"/>
</g>
<!-- 140365776869696 -->
<g id="node8" class="node">
<title>140365776869696</title>
<polygon fill="none" stroke="#000000" points="76.5,-83.5 76.5,-129.5 303.5,-129.5 303.5,-83.5 76.5,-83.5"/>
<text text-anchor="middle" x="121" y="-102.8" font-family="Times,serif" font-size="14.00" fill="#000000">dense: Dense</text>
<polyline fill="none" stroke="#000000" points="165.5,-83.5 165.5,-129.5 "/>
<text text-anchor="middle" x="193" y="-114.3" font-family="Times,serif" font-size="14.00" fill="#000000">input:</text>
<polyline fill="none" stroke="#000000" points="165.5,-106.5 220.5,-106.5 "/>
<text text-anchor="middle" x="193" y="-91.3" font-family="Times,serif" font-size="14.00" fill="#000000">output:</text>
<polyline fill="none" stroke="#000000" points="220.5,-83.5 220.5,-129.5 "/>
<text text-anchor="middle" x="262" y="-114.3" font-family="Times,serif" font-size="14.00" fill="#000000">(None, 576)</text>
<polyline fill="none" stroke="#000000" points="220.5,-106.5 303.5,-106.5 "/>
<text text-anchor="middle" x="262" y="-91.3" font-family="Times,serif" font-size="14.00" fill="#000000">(None, 64)</text>
</g>
<!-- 140365776830704&#45;&gt;140365776869696 -->
<g id="edge7" class="edge">
<title>140365776830704&#45;&gt;140365776869696</title>
<path fill="none" stroke="#000000" d="M190,-166.3799C190,-158.1745 190,-148.7679 190,-139.8786"/>
<polygon fill="#000000" stroke="#000000" points="193.5001,-139.784 190,-129.784 186.5001,-139.784 193.5001,-139.784"/>
</g>
<!-- 140365776869976 -->
<g id="node9" class="node">
<title>140365776869976</title>
<polygon fill="none" stroke="#000000" points="73.5,-.5 73.5,-46.5 306.5,-46.5 306.5,-.5 73.5,-.5"/>
<text text-anchor="middle" x="124.5" y="-19.8" font-family="Times,serif" font-size="14.00" fill="#000000">dense_1: Dense</text>
<polyline fill="none" stroke="#000000" points="175.5,-.5 175.5,-46.5 "/>
<text text-anchor="middle" x="203" y="-31.3" font-family="Times,serif" font-size="14.00" fill="#000000">input:</text>
<polyline fill="none" stroke="#000000" points="175.5,-23.5 230.5,-23.5 "/>
<text text-anchor="middle" x="203" y="-8.3" font-family="Times,serif" font-size="14.00" fill="#000000">output:</text>
<polyline fill="none" stroke="#000000" points="230.5,-.5 230.5,-46.5 "/>
<text text-anchor="middle" x="268.5" y="-31.3" font-family="Times,serif" font-size="14.00" fill="#000000">(None, 64)</text>
<polyline fill="none" stroke="#000000" points="230.5,-23.5 306.5,-23.5 "/>
<text text-anchor="middle" x="268.5" y="-8.3" font-family="Times,serif" font-size="14.00" fill="#000000">(None, 10)</text>
</g>
<!-- 140365776869696&#45;&gt;140365776869976 -->
<g id="edge8" class="edge">
<title>140365776869696&#45;&gt;140365776869976</title>
<path fill="none" stroke="#000000" d="M190,-83.3799C190,-75.1745 190,-65.7679 190,-56.8786"/>
<polygon fill="#000000" stroke="#000000" points="193.5001,-56.784 190,-46.784 186.5001,-56.784 193.5001,-56.784"/>
</g>
</g>
</svg>
